<?xml version="1.0" encoding="utf-8"?>
<!-- Generator: Adobe Illustrator 22.0.1, SVG Export Plug-In . SVG Version: 6.00 Build 0)  -->
<svg version="1.1" id="Laag_1" xmlns="http://www.w3.org/2000/svg"  x="0px" y="0px"
	 viewBox="0 0 33 16" style="enable-background:new 0 0 33 16;" xml:space="preserve">
<style type="text/css">
	.st0{fill:#152130;}
</style>
<title>Whistle</title>
<path class="st0" d="M31.6,2.8L15.4,0.1c-1.6-0.3-3.3,0-4.8,0.7C9.1,1.6,7.8,2.8,7,4.3c-0.9-1.5-2.8-2-4.4-1.2
	C1,3.9,0.3,5.9,1.1,7.6C1.9,9.3,4,10,5.7,9.2C5.8,9.1,6,9,6.2,8.9c0.1,0.9,0.4,1.8,0.8,2.6c1.9,4,6.7,5.6,10.7,3.7
	c1.5-0.7,3-1.9,4.5-3.1c1.5-1.3,3.1-2.6,4.9-3.4c1.6-0.8,3.1-1.1,4.6-0.9c0.4,0,0.8-0.3,0.9-0.7c0,0,0-0.1,0-0.1l-0.1-3.4
	C32.3,3.1,32,2.8,31.6,2.8L31.6,2.8z M2.5,6.9C2.1,6,2.5,5,3.4,4.5c0.9-0.4,2-0.1,2.4,0.8c0.4,0.9,0.1,2-0.8,2.4
	C4.1,8.2,3,7.8,2.5,6.9L2.5,6.9z"/>
</svg>
